<svg width="146" height="92" viewBox="0 0 146 92" fill="none" xmlns="http://www.w3.org/2000/svg">
<path d="M6.31274 55.698H11.961C15.6157 55.698 19.1281 53.4471 19.1281 47.0296C19.1281 41.1868 17.0871 37.4513 10.8693 37.4513H6.36021V55.698H6.31274ZM0 32.0874H12.3882C19.8401 32.0874 25.3934 36.8287 25.3934 46.407C25.3934 54.7881 21.1216 61.0619 12.3882 61.0619H0V32.0874Z" fill="#00B1C5"/>
<path d="M33.3203 32.0874H54.7742V37.4513H39.6331V43.6293H53.5401V48.5622H39.6331V55.698H55.1064V61.014H33.3203V32.0874Z" fill="#00B1C5"/>
<path d="M63.1758 32.0874H69.4411L81.4495 51.4835H81.497V32.0874H87.43V61.014H81.1173L69.1563 41.6657H69.1088V61.014H63.1758V32.0874Z" fill="#00B1C5"/>
<path d="M102.57 37.4513H93.9785V32.0874H117.473V37.4513H108.882V61.014H102.57V37.4513Z" fill="#00B1C5"/>
<path d="M128.2 49.8552H135.652L132.045 39.2233H131.95L128.2 49.8552ZM128.817 32.0874H135.272L145.999 61.014H139.449L137.266 54.5486H126.539L124.308 61.014H117.9L128.817 32.0874Z" fill="#00B1C5"/>
<path d="M36.3105 74.9026H39.9178V88.5517H48.0342V91.6168H36.3105V74.9026Z" fill="#00B1C5"/>
<path d="M59.4721 85.1514H63.7439L61.7029 79.0213H61.6554L59.4721 85.1514ZM59.8043 74.9026H63.554L69.7718 91.6168H65.9747L64.7406 87.8812H58.5228L57.2413 91.6168H53.5391L59.8043 74.9026Z" fill="#00B1C5"/>
<path d="M79.4549 88.7433H83.347C84.7709 88.7433 86.0525 88.2644 86.0525 86.5403C86.0525 84.8162 85.0083 84.1457 83.4419 84.1457H79.4549V88.7433ZM79.4549 81.6553H83.1571C84.4387 81.6553 85.388 81.0806 85.388 79.6439C85.388 78.0634 84.2014 77.7282 82.8724 77.7282H79.4549V81.6553ZM75.8477 74.9026H83.6318C86.8119 74.9026 88.9478 75.9562 88.9478 79.0692C88.9478 80.7454 88.1409 81.8469 86.717 82.5653C88.7579 83.14 89.7547 84.7204 89.7547 86.8276C89.7547 90.2279 86.9068 91.6647 83.9166 91.6647H75.8951V74.9026H75.8477Z" fill="#00B1C5"/>
<path d="M99.296 86.0615C99.296 88.2645 101.005 89.1744 102.951 89.1744C104.232 89.1744 106.178 88.7913 106.178 87.0672C106.178 85.2473 103.663 84.96 101.242 84.2895C98.7739 83.6669 96.3058 82.6133 96.3058 79.5482C96.3058 76.1 99.4859 74.4717 102.524 74.4717C105.988 74.4717 109.169 76.0042 109.169 79.8356H105.656C105.561 77.8241 104.137 77.2973 102.381 77.2973C101.242 77.2973 99.8656 77.7762 99.8656 79.213C99.8656 80.506 100.673 80.6976 104.802 81.7512C106.036 82.0386 109.738 82.8527 109.738 86.6362C109.738 89.7012 107.365 92.0001 102.856 92.0001C99.2011 92.0001 95.7362 90.1802 95.7837 86.0615H99.296Z" fill="#00B1C5"/>
<path d="M75.6578 7.47095H70.3418V12.8348H75.6578V7.47095Z" fill="#00B1C5"/>
<path d="M60.8492 7.47095H55.5332V12.8348H60.8492V7.47095Z" fill="#00B1C5"/>
<path d="M90.5152 7.47095H85.1992V12.8348H90.5152V7.47095Z" fill="#00B1C5"/>
<path d="M68.2535 0H62.9375V5.36387H68.2535V0Z" fill="#00B1C5"/>
<path d="M83.0621 0H77.7461V5.36387H83.0621V0Z" fill="#00B1C5"/>
</svg>
