<?xml version="1.0" encoding="UTF-8" standalone="no"?>
<!-- Created with Inkscape (http://www.inkscape.org/) -->

<svg
   width="40.802097mm"
   height="10.119376mm"
   viewBox="0 0 40.802097 10.119376"
   version="1.1"
   id="svg5"
   sodipodi:docname="logo-cz.svg"
   inkscape:version="1.1.1 (3bf5ae0d25, 2021-09-20)"
   xmlns:inkscape="http://www.inkscape.org/namespaces/inkscape"
   xmlns:sodipodi="http://sodipodi.sourceforge.net/DTD/sodipodi-0.dtd"
   xmlns="http://www.w3.org/2000/svg"
   xmlns:svg="http://www.w3.org/2000/svg">
  <sodipodi:namedview
     id="namedview7"
     pagecolor="#ffffff"
     bordercolor="#666666"
     borderopacity="1.0"
     inkscape:pageshadow="2"
     inkscape:pageopacity="0.0"
     inkscape:pagecheckerboard="0"
     inkscape:document-units="mm"
     showgrid="false"
     inkscape:zoom="0.72337262"
     inkscape:cx="111.97549"
     inkscape:cy="-67.04705"
     inkscape:window-width="1920"
     inkscape:window-height="1001"
     inkscape:window-x="-9"
     inkscape:window-y="-9"
     inkscape:window-maximized="1"
     inkscape:current-layer="layer1" />
  <defs
     id="defs2" />
  <g
     inkscape:label="Vrstva 1"
     inkscape:groupmode="layer"
     id="layer1"
     transform="translate(-76.160528,-152.21864)">
    <g
       transform="matrix(0.03527778,0,0,-0.03527778,71.594694,166.90524)"
       id="g12">
      <path
         id="path14"
         style="fill:#064365;fill-opacity:1;fill-rule:nonzero;stroke:none"
         d="m 719.402,282.871 c -5.679,-1.203 -18.941,-2.234 -28.062,-2.234 -22.219,0 -42.024,5.683 -42.024,37.015 v 89.016 c 0,1.887 1.551,3.449 3.457,3.449 h 22.547 c 1.899,0 3.45,-1.562 3.45,-3.449 v -89.016 c 0,-8.961 2.929,-11.703 11.027,-11.703 h 29.605 c 1.899,0 3.442,-1.551 3.442,-3.449 v -16.016 c 0,-2.226 -1.02,-3.093 -3.442,-3.613" />
      <path
         id="path16"
         style="fill:#064365;fill-opacity:1;fill-rule:nonzero;stroke:none"
         d="m 802.832,340.719 c 0,12.75 -5.852,19.117 -15.488,19.117 -9.485,0 -15.84,-6.543 -15.84,-19.117 v -0.684 h 31.328 z m 23.594,-17.906 h -54.922 v -0.336 c 0,-9.821 4.133,-18.774 17.734,-18.774 10.852,0 26.172,0.867 33.059,1.563 0.164,0 0.34,0 0.516,0 1.894,0 3.281,-0.868 3.281,-2.766 v -13.074 c 0,-2.754 -0.696,-3.965 -3.633,-4.66 -11.008,-2.743 -20.313,-4.129 -35.293,-4.129 -20.84,0 -43.223,11.019 -43.223,44.246 v 12.051 c 0,27.726 16.184,45.289 43.567,45.289 28.25,0 42.527,-19.289 42.527,-45.289 v -9.985 c 0,-2.578 -1.379,-4.136 -3.613,-4.136" />
      <path
         id="path18"
         style="fill:#064365;fill-opacity:1;fill-rule:nonzero;stroke:none"
         d="m 909.348,282.023 c -5.168,-0.867 -8.606,-1.386 -13.606,-1.386 -18.945,0 -28.926,4.992 -28.926,29.445 v 49.93 l -13.789,2.238 c -1.882,0.344 -3.613,1.727 -3.613,3.613 v 11.364 c 0,1.894 1.731,3.609 3.613,3.609 h 13.789 v 14.125 c 0,1.891 1.543,3.098 3.438,3.449 l 21.008,3.602 c 0.183,0 0.34,0 0.515,0 1.731,0 3.106,-1.199 3.106,-2.918 v -18.258 h 14.109 c 1.906,0 3.457,-1.539 3.457,-3.441 v -13.946 c 0,-1.886 -1.551,-3.437 -3.457,-3.437 h -14.109 v -50.106 c 0,-6.883 0.515,-8.09 5.683,-8.09 h 8.426 c 2.246,0 3.625,-1.039 3.625,-2.929 v -13.426 c 0,-1.715 -1.199,-3.098 -3.269,-3.438" />
      <path
         id="path20"
         style="fill:#064365;fill-opacity:1;fill-rule:nonzero;stroke:none"
         d="m 974.094,282.184 h -21.008 c -1.895,0 -3.457,1.562 -3.457,3.445 v 91.766 c 0,1.902 1.562,3.441 3.457,3.441 h 21.008 c 1.89,0 3.445,-1.539 3.445,-3.441 v -91.766 c 0,-1.883 -1.555,-3.445 -3.445,-3.445 z m 0.691,109.851 h -22.383 c -1.906,0 -3.449,1.551 -3.449,3.449 v 16.012 c 0,1.887 1.543,3.438 3.449,3.438 h 22.383 c 1.895,0 3.438,-1.551 3.438,-3.438 v -16.012 c 0,-1.898 -1.543,-3.449 -3.438,-3.449" />
      <path
         id="path22"
         style="fill:#064365;fill-opacity:1;fill-rule:nonzero;stroke:none"
         d="m 1048.19,280.637 c -9.47,0 -22.55,1.386 -31.32,3.789 -2.08,0.515 -3.28,1.894 -3.28,3.957 v 13.941 c 0,1.731 1.2,3.281 3.28,3.281 0.17,0 0.5,0 0.68,0 9.29,-1.207 23.76,-2.41 29.28,-2.41 8.26,0 10.14,2.231 10.14,6.711 0,2.59 -1.54,4.473 -6.36,7.227 l -22.39,12.918 c -9.65,5.508 -15.33,14.297 -15.33,25.488 0,17.387 11.53,26.684 35.3,26.684 13.6,0 21.87,-1.731 30.65,-3.957 2.07,-0.528 3.27,-1.899 3.27,-3.969 v -13.945 c 0,-2.059 -1.2,-3.266 -2.92,-3.266 -0.18,0 -0.35,0 -0.51,0 -5.01,0.684 -19.81,2.23 -28.59,2.23 -6.71,0 -9.13,-1.023 -9.13,-4.988 0,-2.586 1.89,-3.957 5.35,-6.027 l 21.34,-12.223 c 14.29,-8.254 17.39,-17.219 17.39,-26.512 0,-16.195 -11.72,-28.929 -36.85,-28.929" />
      <path
         id="path24"
         style="fill:#064365;fill-opacity:1;fill-rule:nonzero;stroke:none"
         d="m 1082.63,413.383 -15.32,-20.145 c -1.55,-1.894 -2.24,-2.574 -4.65,-2.574 h -27.55 c -2.41,0 -3.1,0.504 -4.65,2.574 l -15.15,20.145 c -0.52,0.683 -0.69,1.207 -0.69,1.715 0,0.695 0.52,1.215 1.55,1.215 h 17.74 c 2.23,0 2.74,-0.52 4.13,-2.063 l 10.85,-12.059 11.01,12.059 c 1.37,1.543 1.89,2.063 4.13,2.063 h 17.75 c 1.02,0 1.53,-0.52 1.53,-1.215 0,-0.508 -0.17,-1.032 -0.68,-1.715" />
      <path
         id="path26"
         style="fill:#064365;fill-opacity:1;fill-rule:nonzero;stroke:none"
         d="m 1169.79,282.023 c -5.15,-0.867 -8.59,-1.386 -13.59,-1.386 -18.93,0 -28.92,4.992 -28.92,29.445 v 49.93 l -13.78,2.238 c -1.88,0.344 -3.62,1.727 -3.62,3.613 v 11.364 c 0,1.894 1.74,3.609 3.62,3.609 h 13.78 v 14.125 c 0,1.891 1.55,3.098 3.43,3.449 l 21.03,3.602 c 0.15,0 0.33,0 0.51,0 1.71,0 3.09,-1.199 3.09,-2.918 v -18.258 h 14.12 c 1.89,0 3.43,-1.539 3.43,-3.441 v -13.946 c 0,-1.886 -1.54,-3.437 -3.43,-3.437 h -14.12 v -50.106 c 0,-6.883 0.53,-8.09 5.7,-8.09 h 8.42 c 2.24,0 3.62,-1.039 3.62,-2.929 v -13.426 c 0,-1.715 -1.21,-3.098 -3.29,-3.438" />
      <path
         id="path28"
         style="fill:#064365;fill-opacity:1;fill-rule:nonzero;stroke:none"
         d="m 1277.96,413.383 -15.32,-20.145 c -1.55,-1.894 -2.25,-2.574 -4.66,-2.574 h -27.54 c -2.41,0 -3.09,0.504 -4.64,2.574 l -15.16,20.145 c -0.52,0.683 -0.7,1.207 -0.7,1.715 0,0.695 0.53,1.215 1.55,1.215 h 17.74 c 2.24,0 2.75,-0.52 4.14,-2.063 l 10.85,-12.059 11.01,12.059 c 1.38,1.543 1.9,2.063 4.13,2.063 h 17.73 c 1.05,0 1.55,-0.52 1.55,-1.215 0,-0.508 -0.16,-1.032 -0.68,-1.715" />
      <path
         id="path30"
         style="fill:#064365;fill-opacity:1;fill-rule:nonzero;stroke:none"
         d="m 1258.81,340.719 c 0,12.75 -5.84,19.117 -15.49,19.117 -9.47,0 -15.84,-6.543 -15.84,-19.117 v -0.684 h 31.33 z m 23.6,-17.906 h -54.93 v -0.336 c 0,-9.821 4.13,-18.774 17.73,-18.774 10.86,0 26.18,0.867 33.05,1.563 0.19,0 0.36,0 0.52,0 1.9,0 3.27,-0.868 3.27,-2.766 v -13.074 c 0,-2.754 -0.68,-3.965 -3.6,-4.66 -11.03,-2.743 -20.32,-4.129 -35.31,-4.129 -20.83,0 -43.21,11.019 -43.21,44.246 v 12.051 c 0,27.726 16.18,45.289 43.57,45.289 28.22,0 42.52,-19.289 42.52,-45.289 v -9.985 c 0,-2.578 -1.38,-4.136 -3.61,-4.136" />
      <path
         id="path32"
         style="fill:#064365;fill-opacity:1;fill-rule:nonzero;stroke:none"
         d="m 714.414,221.262 c 0,12.215 -7.578,17.039 -22.043,17.039 -2.41,0 -11.883,-0.34 -13.941,-0.516 v -35.129 c 1.89,-0.176 12.039,-0.34 13.941,-0.34 15.324,0 22.043,5.672 22.043,17.383 z m -22.043,-43.215 c -4.129,0 -9.644,0.332 -13.941,0.508 v -41.836 c 0,-1.895 -1.555,-3.446 -3.457,-3.446 h -22.2 c -1.906,0 -3.457,1.387 -3.457,3.27 v 115.703 c 0,5.859 2.422,7.402 7.754,8.262 8.782,1.383 22.547,2.242 34.95,2.242 26.007,0 51.664,-9.137 51.664,-41.488 v -1.563 c 0,-32.187 -25.657,-41.652 -51.313,-41.652" />
      <path
         id="path34"
         style="fill:#064365;fill-opacity:1;fill-rule:nonzero;stroke:none"
         d="m 824.973,210.234 h -1.387 c -8.441,0 -15.844,-2.578 -22.207,-6.035 v -67.312 c 0,-1.895 -1.555,-3.614 -3.449,-3.614 h -20.84 c -1.895,0 -3.613,1.719 -3.613,3.614 v 91.59 c 0,1.906 1.543,3.457 3.449,3.457 h 20.476 c 1.907,0 3.457,-1.551 3.457,-3.457 v -3.438 c 6.368,5.344 14.969,8.262 23.243,8.262 1.906,0 3.449,-1.543 3.449,-3.438 v -16.355 c 0,-1.543 -1.035,-3.274 -2.578,-3.274" />
      <path
         id="path36"
         style="fill:#064365;fill-opacity:1;fill-rule:nonzero;stroke:none"
         d="m 907.07,175.449 h -9.804 c -12.071,0 -15.164,-4.121 -15.164,-12.558 v -1.563 c 0,-7.226 3.613,-8.601 10.836,-8.601 5.175,0 10,1.726 14.132,3.789 z m 23.946,-42.176 h -19.297 c -1.895,0 -3.438,1.551 -3.438,3.446 v 2.746 c -6.718,-4.805 -13.601,-7.735 -23.933,-7.735 -14.993,0 -29.446,7.215 -29.446,29.598 v 1.563 c 0,20.148 12.911,29.101 42.364,29.101 h 9.289 v 6.192 c 0,9.804 -4.825,11.875 -12.91,11.875 -11.04,0 -23.254,-0.684 -28.586,-1.192 h -0.871 c -1.715,0 -3.102,0.86 -3.102,3.098 v 13.933 c 0,1.907 1.219,3.282 3.277,3.79 6.379,1.542 18.43,3.613 29.797,3.613 24.793,0 40.293,-9.969 40.293,-35.117 v -61.465 c 0,-1.895 -1.543,-3.446 -3.437,-3.446" />
      <path
         id="path38"
         style="fill:#064365;fill-opacity:1;fill-rule:nonzero;stroke:none"
         d="m 1056.88,133.273 h -20.83 c -1.9,0 -3.44,1.719 -3.44,3.614 v 57.332 c 0,12.07 -2.25,16.015 -12.74,16.015 -5.01,0 -10.33,-2.402 -16.19,-5.507 v -67.84 c 0,-1.895 -1.56,-3.614 -3.45,-3.614 h -20.835 c -1.895,0 -3.625,1.719 -3.625,3.614 v 125.004 c 0,1.894 1.554,3.445 3.46,3.445 h 21 c 1.89,0 3.45,-1.551 3.45,-3.445 v -36.344 c 8.79,5.683 16.02,7.754 26.34,7.754 24.96,0 30.48,-17.383 30.48,-39.082 v -57.332 c 0,-1.895 -1.73,-3.614 -3.62,-3.614" />
      <path
         id="path40"
         style="fill:#064365;fill-opacity:1;fill-rule:nonzero;stroke:none"
         d="m 1143.66,175.449 h -9.82 c -12.05,0 -15.16,-4.121 -15.16,-12.558 v -1.563 c 0,-7.226 3.62,-8.601 10.85,-8.601 5.17,0 9.99,1.726 14.13,3.789 z m 23.94,-42.176 h -19.29 c -1.89,0 -3.45,1.551 -3.45,3.446 v 2.746 c -6.72,-4.805 -13.59,-7.735 -23.93,-7.735 -14.98,0 -29.45,7.215 -29.45,29.598 v 1.563 c 0,20.148 12.91,29.101 42.36,29.101 h 9.3 v 6.192 c 0,9.804 -4.83,11.875 -12.91,11.875 -11.02,0 -23.25,-0.684 -28.58,-1.192 h -0.87 c -1.71,0 -3.09,0.86 -3.09,3.098 v 13.933 c 0,1.907 1.21,3.282 3.26,3.79 6.38,1.542 18.43,3.613 29.79,3.613 24.8,0 40.3,-9.969 40.3,-35.117 v -61.465 c 0,-1.895 -1.56,-3.446 -3.44,-3.446" />
      <path
         id="path42"
         style="fill:#ed1834;fill-opacity:1;fill-rule:nonzero;stroke:none"
         d="m 335.879,360.461 c -14.578,-1.578 -18.145,5.809 -8.969,15.723 8.465,9.113 25.024,17.187 37.699,18.757 12.793,1.575 18.321,-3.949 11.731,-13.046 -7.207,-9.903 -25.664,-19.872 -40.461,-21.434" />
      <path
         id="path44"
         style="fill:#ed1834;fill-opacity:1;fill-rule:nonzero;stroke:none"
         d="m 144.516,130.273 c -25.789,0.059 -16.879,31.622 14.238,65.098 26.73,28.77 62.047,50.078 82.5,51.192 20.836,1.21 22.777,-18.848 1.141,-48.614 -25.364,-34.785 -71.403,-67.734 -97.879,-67.676" />
      <path
         id="path46"
         style="fill:#ed1834;fill-opacity:1;fill-rule:nonzero;stroke:none"
         d="m 293.949,129.914 c -29.918,0.059 -32.367,33.875 -10.101,69.363 18.945,30.176 50.523,52.512 73.359,53.762 23.406,1.336 34.133,-19.543 21.824,-50.801 -14.539,-37.004 -54.203,-72.402 -85.082,-72.324" />
      <path
         id="path48"
         style="fill:#ed1834;fill-opacity:1;fill-rule:nonzero;stroke:none"
         d="m 504.199,378.461 c -17.004,-1.762 -28.176,5.457 -25.476,15.246 2.461,8.949 15.894,17.109 30.308,18.883 14.621,1.816 26.66,-3.414 26.66,-12.305 0,-9.797 -14.238,-19.953 -31.492,-21.824" />
      <path
         id="path50"
         style="fill:#064365;fill-opacity:1;fill-rule:nonzero;stroke:none"
         d="m 487.449,260.348 c -3.57,-0.27 -7.215,-0.914 -10.855,-1.91 -9.653,-2.305 -20.637,0.996 -41.223,21.789 -20.891,21.046 -16.445,30.605 -14.543,34.296 2.246,4.454 14.543,6.469 22.324,6.59 7.532,0.051 16.313,-0.449 17.512,-4.883 3.074,-11.109 15.117,-18.765 32.258,-17.523 23.394,1.703 42.769,18.945 42.769,36.402 0,15.434 -15.488,25.149 -34.312,23.282 -14.043,-1.387 -27.668,-8.996 -35.332,-19.286 -4.25,-5.632 -11.152,-5.832 -19.504,-6.503 -8.723,-0.696 -16.953,-0.86 -17.313,3.441 -0.753,6.219 -5.089,10.656 -11.917,12.367 -3.583,0.735 -2.711,7.528 0,12.168 2.511,4.27 5.011,8.969 11.164,11.172 11.601,4.023 21.765,11.602 24.66,18.996 3.562,9.051 -5.012,14.43 -18.696,12.762 -13.496,-1.711 -28.621,-9.801 -34.265,-18.844 -4.141,-6.519 -2.371,-11.976 3.828,-14.359 3.699,-1.575 3.144,-7.168 0.566,-11.813 -2.566,-4.508 -5.207,-10.207 -12.617,-13.16 -9.719,-3.832 -19.324,-10.164 -26.418,-17.773 -3.18,-3.555 -11.972,-3.188 -18.254,-3.188 -8.332,0 -13.343,0.758 -12.789,3.024 2.434,9.031 -3.34,14.168 -15.254,13.039 -15.625,-1.563 -38.398,-13.813 -52.258,-28.676 -15.437,-16.61 -14.496,-30.488 4.208,-29.156 13.925,1.066 36.953,13.3 45.546,21.523 5.145,4.891 12.918,7.77 22.274,8.141 8.59,0.449 16.558,0.617 15.758,-4.262 -1.778,-11.109 6.015,-18.871 21.511,-17.766 5.325,0.391 10.864,1.754 16.172,3.914 4.399,1.688 15.949,0.551 33.031,-29.746 11.825,-21.015 12.657,-33.859 7.821,-43.301 -2.871,-5.441 -5.196,-11.21 -6.883,-17.375 -10.422,-37.753 7.332,-74.199 42.527,-74.265 36.321,-0.149 66.746,38.113 66.746,77.734 0,32.86 -21.882,54.571 -48.242,53.149" />
    </g>
  </g>
</svg>
